<?xml version="1.0" encoding="utf-8"?>
<!-- Generator: Adobe Illustrator 15.1.0, SVG Export Plug-In . SVG Version: 6.00 Build 0)  -->
<!DOCTYPE svg PUBLIC "-//W3C//DTD SVG 1.1//EN" "http://www.w3.org/Graphics/SVG/1.1/DTD/svg11.dtd">
<svg version="1.1" id="Warstwa_1" xmlns="http://www.w3.org/2000/svg" xmlns:xlink="http://www.w3.org/1999/xlink" x="0px" y="0px"
	 width="702.188px" height="60.379px" viewBox="0 0 702.188 60.379" enable-background="new 0 0 702.188 60.379"
	 xml:space="preserve">
<g>
	<defs>
		<path id="SVGID_1_" d="M0,25.193C0,33.52,6.75,40.27,15.078,40.27c8.326,0,15.076-6.75,15.076-15.077
			c0-8.327-6.75-15.077-15.076-15.077C6.75,10.116,0,16.866,0,25.193"/>
	</defs>
	<clipPath id="SVGID_2_">
		<use xlink:href="#SVGID_1_"  overflow="visible"/>
	</clipPath>
	
		<linearGradient id="SVGID_3_" gradientUnits="userSpaceOnUse" x1="0" y1="60.3789" x2="1" y2="60.3789" gradientTransform="matrix(21.3225 -21.3225 -21.3225 -21.3225 1291.8463 1323.2733)">
		<stop  offset="0" style="stop-color:#E2440F"/>
		<stop  offset="1" style="stop-color:#E30A13"/>
	</linearGradient>
	<polygon clip-path="url(#SVGID_2_)" fill="url(#SVGID_3_)" points="-15.077,25.193 15.077,-4.961 45.231,25.193 15.077,55.347 	"/>
</g>
<g>
	<defs>
		<rect id="SVGID_4_" width="702.188" height="60.379"/>
	</defs>
	<clipPath id="SVGID_5_">
		<use xlink:href="#SVGID_4_"  overflow="visible"/>
	</clipPath>
	<polygon clip-path="url(#SVGID_5_)" fill="#FAFAFA" points="61.549,3.172 61.549,38.836 82.253,38.836 82.253,47.214 
		52.871,47.214 52.871,3.172 	"/>
	<rect x="91.229" y="3.172" clip-path="url(#SVGID_5_)" fill="#FAFAFA" width="8.677" height="44.042"/>
	<polygon clip-path="url(#SVGID_5_)" fill="#FAFAFA" points="147.717,3.172 127.611,49.248 107.505,3.172 117.917,3.172 
		127.97,28.005 137.425,3.172 	"/>
	<polygon clip-path="url(#SVGID_5_)" fill="#FAFAFA" points="185.356,3.172 185.356,11.549 163.994,11.549 163.994,20.944 
		182.903,20.944 182.903,29.321 163.994,29.321 163.994,38.836 186.194,38.836 186.194,47.214 155.316,47.214 155.316,3.172 	"/>
	<path clip-path="url(#SVGID_5_)" fill="#FAFAFA" d="M228.14,10.651c-1.914,0-3.401,0.38-4.458,1.137
		c-1.058,0.759-1.586,1.895-1.586,3.411c0,1.396,0.769,2.624,2.305,3.681c1.535,1.056,3.58,2.064,6.133,3.021
		c2.074,0.758,3.849,1.626,5.326,2.603c1.475,0.978,2.702,2.325,3.679,4.04c0.978,1.715,1.467,3.889,1.467,6.522
		c0,2.273-0.589,4.379-1.765,6.314c-1.177,1.934-2.903,3.47-5.176,4.606c-2.275,1.137-4.988,1.705-8.139,1.705
		c-2.633,0-5.246-0.389-7.839-1.167c-2.593-0.777-5.007-1.964-7.24-3.561l3.829-6.762c1.516,1.117,3.251,2.035,5.206,2.753
		c1.954,0.718,3.71,1.077,5.267,1.077c1.834,0,3.429-0.389,4.787-1.167c1.355-0.777,2.034-2.044,2.034-3.8
		c0-2.274-2.135-4.249-6.403-5.925c-2.513-0.996-4.608-1.954-6.282-2.872c-1.676-0.917-3.123-2.233-4.339-3.949
		c-1.218-1.715-1.826-3.869-1.826-6.463c0-3.789,1.247-6.841,3.741-9.155c2.492-2.314,5.813-3.571,9.963-3.771
		c3.27,0,6.003,0.37,8.198,1.108c2.193,0.738,4.328,1.786,6.403,3.141l-3.292,6.643C234.304,11.709,230.972,10.651,228.14,10.651"/>
	<polygon clip-path="url(#SVGID_5_)" fill="#FAFAFA" points="258.958,9.574 258.958,20.944 265.3,20.944 265.3,27.467 
		258.958,27.467 258.958,47.214 250.579,47.214 250.579,27.467 246.511,27.467 246.511,20.944 250.579,20.944 250.579,9.574 	"/>
	<path clip-path="url(#SVGID_5_)" fill="#FAFAFA" d="M282.864,23.277c1.256-1.116,2.543-1.983,3.859-2.603
		c1.317-0.618,2.354-0.927,3.112-0.927l-0.419,8.378c-0.24-0.04-0.578-0.061-1.017-0.061c-1.676,0-3.152,0.44-4.429,1.317
		c-1.277,0.878-2.253,2.004-2.931,3.381c-0.679,1.376-1.018,2.782-1.018,4.219v10.232h-8.317v-26.15h7.539l0.658,5.985
		C280.62,25.651,281.606,24.395,282.864,23.277"/>
	<path clip-path="url(#SVGID_5_)" fill="#FAFAFA" d="M313.292,39.075l3.71,6.224c-1.436,0.799-2.953,1.437-4.548,1.915
		c-1.596,0.479-3.112,0.717-4.548,0.717c-3.112,0-5.795-0.588-8.048-1.764c-2.255-1.177-3.96-2.832-5.116-4.967
		c-1.158-2.134-1.736-4.578-1.736-7.331c0-2.553,0.667-4.906,2.004-7.061c1.337-2.154,3.162-3.86,5.476-5.116
		c2.313-1.257,4.848-1.886,7.6-1.886c3.75,0,6.831,1.098,9.245,3.292c2.414,2.195,3.979,5.326,4.698,9.395l-19.15,6.104
		c1.277,1.477,3.012,2.214,5.207,2.214C309.761,40.811,311.497,40.233,313.292,39.075 M302.939,28.244
		c-1.118,1.277-1.676,2.992-1.676,5.146v0.539l11.489-3.889c-0.837-2.474-2.613-3.711-5.326-3.711
		C305.552,26.329,304.056,26.968,302.939,28.244"/>
	<path clip-path="url(#SVGID_5_)" fill="#FAFAFA" d="M356.256,21.063v26.151h-8.376v-3.231c-2.514,2.633-5.426,3.949-8.737,3.949
		c-3.869,0-7.011-1.156-9.425-3.471c-2.414-2.313-3.62-5.744-3.62-10.292c0-2.873,0.588-5.396,1.765-7.571
		c1.176-2.173,2.743-3.859,4.698-5.056c1.954-1.196,4.048-1.795,6.283-1.795c2.313,0,4.148,0.35,5.505,1.047
		c1.356,0.699,2.552,1.686,3.591,2.963l0.538-2.694H356.256z M347.879,37.161v-6.403c-0.479-1.277-1.308-2.294-2.483-3.052
		c-1.178-0.758-2.565-1.137-4.16-1.137c-1.835,0-3.401,0.679-4.697,2.034c-1.297,1.357-1.945,3.073-1.945,5.147
		c0,1.356,0.319,2.603,0.958,3.74c0.638,1.137,1.485,2.024,2.543,2.662c1.056,0.639,2.204,0.958,3.44,0.958
		C344.447,41.11,346.563,39.794,347.879,37.161"/>
	<path clip-path="url(#SVGID_5_)" fill="#FAFAFA" d="M405.475,21.901c1.535,1.437,2.344,3.331,2.424,5.685v19.627h-8.318V31.057
		c-0.08-1.316-0.298-2.303-0.658-2.962c-0.358-0.658-1.057-1.026-2.093-1.107c-1.956,0-3.482,0.948-4.579,2.843
		s-1.646,4.12-1.646,6.672v10.711h-8.378V31.057c-0.08-1.316-0.318-2.303-0.718-2.962c-0.398-0.658-1.137-1.026-2.214-1.107
		c-1.876,0-3.351,0.948-4.428,2.843c-1.078,1.895-1.616,4.079-1.616,6.552v10.831h-8.378v-26.15h7.6l0.6,4.129
		c2.113-3.63,5.265-5.445,9.455-5.445c2.112,0,3.858,0.429,5.234,1.286c1.377,0.858,2.323,2.125,2.843,3.801
		c1.116-1.557,2.443-2.792,3.979-3.711c1.536-0.917,3.121-1.376,4.757-1.376C401.894,19.748,403.938,20.464,405.475,21.901"/>
	<path clip-path="url(#SVGID_5_)" fill="#FAFAFA" d="M417.741,8.767c0.937-0.818,2.005-1.227,3.202-1.227
		c1.155,0,2.192,0.409,3.11,1.227c0.918,0.818,1.377,1.825,1.377,3.021c0,1.197-0.459,2.195-1.377,2.992
		c-0.918,0.799-1.955,1.198-3.11,1.198c-1.197,0-2.266-0.399-3.202-1.198c-0.938-0.797-1.406-1.795-1.406-2.992
		C416.335,10.592,416.803,9.585,417.741,8.767 M424.892,47.214h-8.377v-26.15h8.377V47.214z"/>
	<path clip-path="url(#SVGID_5_)" fill="#FAFAFA" d="M457.894,22.021c1.654,1.476,2.503,3.351,2.543,5.624v19.568h-8.378V30.758
		c-0.119-2.552-1.396-3.83-3.829-3.83c-1.915,0-3.451,0.898-4.607,2.694c-1.158,1.795-1.736,4.109-1.736,6.941v10.651h-8.377v-26.15
		h7.6l0.599,4.188c0.958-1.713,2.284-3.051,3.979-4.008c1.695-0.957,3.7-1.437,6.016-1.437
		C454.173,19.807,456.238,20.545,457.894,22.021"/>
	<path clip-path="url(#SVGID_5_)" fill="#FAFAFA" d="M498.315,21.063v26.151c0,2.473-0.709,4.717-2.125,6.732
		c-1.416,2.014-3.331,3.59-5.743,4.727c-2.414,1.138-5.037,1.706-7.869,1.706c-2.155,0-4.039-0.26-5.656-0.778
		c-1.615-0.519-2.912-1.098-3.889-1.735c-0.979-0.639-2.146-1.518-3.5-2.633l4.905-5.745c1.197,1.117,2.385,1.995,3.562,2.634
		c1.176,0.638,2.663,0.957,4.458,0.957c2.114,0,3.889-0.529,5.326-1.586c1.436-1.058,2.153-2.523,2.153-4.398v-3.71
		c-0.799,1.357-2.024,2.454-3.681,3.292c-1.655,0.837-3.679,1.256-6.073,1.256c-2.354,0-4.538-0.608-6.553-1.825
		c-2.014-1.217-3.62-2.892-4.816-5.026c-1.196-2.134-1.796-4.497-1.796-7.091c0-2.633,0.629-5.047,1.885-7.241
		c1.258-2.193,2.912-3.909,4.968-5.146c2.054-1.236,4.218-1.855,6.493-1.855c2.153,0,4.068,0.31,5.743,0.928
		c1.677,0.619,2.952,1.426,3.83,2.423l0.658-2.035H498.315z M489.938,37.161v-6.403c-0.56-1.277-1.485-2.294-2.781-3.052
		c-1.298-0.758-2.783-1.137-4.458-1.137c-2.035,0-3.751,0.679-5.147,2.034c-1.397,1.357-2.094,3.073-2.094,5.147
		s0.696,3.82,2.094,5.236c1.396,1.416,3.112,2.124,5.147,2.124C486.048,41.11,488.461,39.794,489.938,37.161"/>
	<path clip-path="url(#SVGID_5_)" fill="#FAFAFA" d="M541.279,10.651c-1.914,0-3.4,0.38-4.458,1.137
		c-1.058,0.759-1.586,1.895-1.586,3.411c0,1.396,0.77,2.624,2.306,3.681c1.534,1.056,3.579,2.064,6.133,3.021
		c2.074,0.758,3.849,1.626,5.326,2.603c1.475,0.978,2.701,2.325,3.679,4.04s1.467,3.889,1.467,6.522
		c0,2.273-0.589,4.379-1.765,6.314c-1.178,1.934-2.903,3.47-5.176,4.606c-2.275,1.137-4.988,1.705-8.14,1.705
		c-2.633,0-5.246-0.389-7.839-1.167c-2.593-0.777-5.007-1.964-7.24-3.561l3.829-6.762c1.517,1.117,3.251,2.035,5.206,2.753
		c1.954,0.718,3.71,1.077,5.268,1.077c1.834,0,3.429-0.389,4.786-1.167c1.355-0.777,2.034-2.044,2.034-3.8
		c0-2.274-2.135-4.249-6.402-5.925c-2.514-0.996-4.608-1.954-6.282-2.872c-1.676-0.917-3.123-2.233-4.339-3.949
		c-1.219-1.715-1.826-3.869-1.826-6.463c0-3.789,1.247-6.841,3.741-9.155c2.491-2.314,5.813-3.571,9.963-3.771
		c3.27,0,6.003,0.37,8.197,1.108c2.193,0.738,4.328,1.786,6.403,3.141l-3.292,6.643C547.443,11.709,544.111,10.651,541.279,10.651"
		/>
	<path clip-path="url(#SVGID_5_)" fill="#FAFAFA" d="M579.128,47.094c-1.734,0.559-3.439,0.838-5.116,0.838
		c-4.548,0-8.148-1.227-10.801-3.68c-2.654-2.453-3.979-5.835-3.979-10.144c0-2.792,0.646-5.236,1.943-7.33
		c1.297-2.095,3.002-3.69,5.116-4.788c2.114-1.096,4.39-1.645,6.822-1.645c4.348,0,7.878,1.157,10.592,3.471l-4.069,5.385
		c-1.716-1.356-3.631-2.035-5.744-2.035c-1.757,0-3.242,0.658-4.458,1.975c-1.218,1.316-1.826,2.973-1.826,4.967
		c0,1.996,0.659,3.661,1.975,4.997c1.317,1.337,3.032,2.005,5.147,2.005c1.835,0,3.351-0.498,4.547-1.496l4.189,5.266
		C582.31,45.798,580.863,46.536,579.128,47.094"/>
	<path clip-path="url(#SVGID_5_)" fill="#FAFAFA" d="M614.313,22.021c1.655,1.476,2.503,3.351,2.543,5.624v19.568h-8.377V30.758
		c-0.12-2.552-1.396-3.83-3.83-3.83c-1.915,0-3.451,0.898-4.606,2.694c-1.159,1.795-1.736,4.109-1.736,6.941v10.651h-8.378V0h8.198
		v25.192c0.958-1.676,2.284-2.992,3.979-3.949s3.699-1.437,6.015-1.437C610.592,19.807,612.657,20.545,614.313,22.021"/>
	<path clip-path="url(#SVGID_5_)" fill="#FAFAFA" d="M625.323,26.629c1.256-2.114,3.032-3.779,5.326-4.997
		c2.293-1.216,4.896-1.825,7.809-1.825c2.911,0,5.477,0.609,7.69,1.825c2.213,1.218,3.919,2.883,5.115,4.997
		c1.196,2.115,1.796,4.509,1.796,7.181c0,2.673-0.6,5.087-1.796,7.241s-2.902,3.84-5.115,5.056
		c-2.214,1.217-4.818,1.825-7.811,1.825c-2.912,0-5.496-0.568-7.749-1.705c-2.254-1.137-4.01-2.762-5.266-4.877
		c-1.256-2.114-1.885-4.627-1.885-7.54C623.438,31.138,624.067,28.744,625.323,26.629 M633.671,39.046
		c1.196,1.376,2.712,2.064,4.548,2.064c1.915,0,3.461-0.678,4.639-2.035c1.175-1.355,1.764-3.091,1.764-5.206
		c0-2.114-0.589-3.849-1.764-5.206c-1.178-1.355-2.724-2.034-4.639-2.034c-1.836,0-3.352,0.688-4.548,2.064
		s-1.796,3.103-1.796,5.176C631.875,35.944,632.475,37.669,633.671,39.046"/>
	<path clip-path="url(#SVGID_5_)" fill="#FAFAFA" d="M659.492,26.629c1.256-2.114,3.032-3.779,5.326-4.997
		c2.293-1.216,4.896-1.825,7.809-1.825c2.911,0,5.477,0.609,7.69,1.825c2.213,1.218,3.919,2.883,5.115,4.997
		c1.196,2.115,1.796,4.509,1.796,7.181c0,2.673-0.6,5.087-1.796,7.241s-2.902,3.84-5.115,5.056
		c-2.214,1.217-4.818,1.825-7.811,1.825c-2.912,0-5.496-0.568-7.749-1.705c-2.254-1.137-4.01-2.762-5.266-4.877
		c-1.256-2.114-1.885-4.627-1.885-7.54C657.607,31.138,658.236,28.744,659.492,26.629 M667.84,39.046
		c1.196,1.376,2.712,2.064,4.548,2.064c1.915,0,3.46-0.678,4.639-2.035c1.175-1.355,1.764-3.091,1.764-5.206
		c0-2.114-0.589-3.849-1.764-5.206c-1.179-1.355-2.724-2.034-4.639-2.034c-1.836,0-3.352,0.688-4.548,2.064
		c-1.197,1.376-1.796,3.103-1.796,5.176C666.044,35.944,666.643,37.669,667.84,39.046"/>
	<rect x="693.81" clip-path="url(#SVGID_5_)" fill="#FAFAFA" width="8.378" height="47.214"/>
</g>
</svg>
