<svg height="512pt" viewBox="0 0 512 512" width="512pt" xmlns="http://www.w3.org/2000/svg"><path d="m256 0c-140.699219 0-256 115.300781-256 256s115.300781 256 256 256 256-115.300781 256-256-115.300781-256-256-256zm0 0" fill="#fdbf00"/><path d="m512 256c0 140.699219-115.300781 256-256 256v-512c140.699219 0 256 115.300781 256 256zm0 0" fill="#ff9100"/><path d="m256 61c-107.402344 0-195 87.597656-195 195 0 107.398438 87.597656 195 195 195s195-87.601562 195-195c0-107.402344-87.597656-195-195-195zm0 0" fill="#ffda2d"/><path d="m451 256c0 107.398438-87.597656 195-195 195v-390c107.402344 0 195 87.597656 195 195zm0 0" fill="#fdbf00"/><path d="m346 211c0-33-27-60-60-60v-30h-30v30h-30v-30h-30v30h-30v30h30v150h-30v30h30v30h30v-30h30v30h30v-30c33 0 60-27 60-60 0-18-8.101562-33.898438-20.699219-45 12.597657-11.101562 20.699219-27 20.699219-45zm-60 120h-60v-60h60c16.5 0 30 13.5 30 30s-13.5 30-30 30zm0-90h-60v-60h60c16.5 0 30 13.5 30 30s-13.5 30-30 30zm0 0" fill="#ff9100"/><path d="m325.300781 256c12.597657 11.101562 20.699219 27 20.699219 45 0 33-27 60-60 60v30h-30v-60h30c16.5 0 30-13.5 30-30s-13.5-30-30-30h-30v-30h30c16.5 0 30-13.5 30-30s-13.5-30-30-30h-30v-60h30v30c33 0 60 27 60 60 0 18-8.101562 33.898438-20.699219 45zm0 0" fill="#ff641a"/></svg>