<?xml version="1.0" encoding="UTF-8"?>
<!DOCTYPE svg PUBLIC "-//W3C//DTD SVG 1.1//EN" "http://www.w3.org/Graphics/SVG/1.1/DTD/svg11.dtd">
<!-- Creator: CorelDRAW Home & Student X7 -->
<svg xmlns="http://www.w3.org/2000/svg" xml:space="preserve" width="171.798mm" height="15.9753mm" version="1.1" style="shape-rendering:geometricPrecision; text-rendering:geometricPrecision; image-rendering:optimizeQuality; fill-rule:evenodd; clip-rule:evenodd"
viewBox="0 0 18703 1739"
 xmlns:xlink="http://www.w3.org/1999/xlink">
 <defs>
  <style type="text/css">
   <![CDATA[
    .fil0 {fill:#FAFAFA}
   ]]>
  </style>
 </defs>
 <g id="Warstwa_x0020_1">
  <metadata id="CorelCorpID_0Corel-Layer"/>
  <polygon class="fil0" points="250,91 250,1119 846,1119 846,1360 0,1360 0,91 "/>
  <rect class="fil0" x="1105" y="91" width="250" height="1269"/>
  <polygon class="fil0" points="2732,91 2153,1419 1574,91 1874,91 2163,807 2435,91 "/>
  <polygon class="fil0" points="3816,91 3816,333 3201,333 3201,603 3745,603 3745,845 3201,845 3201,1119 3840,1119 3840,1360 2951,1360 2951,91 "/>
  <path class="fil0" d="M5048 307c-55,0 -98,11 -128,33 -30,21 -46,54 -46,98 0,40 22,75 67,106 44,30 103,59 176,87 60,22 111,47 154,75 42,28 78,67 106,116 28,50 42,112 42,188 0,65 -17,126 -51,182 -34,56 -83,100 -149,133 -65,32 -144,49 -234,49 -76,0 -151,-12 -226,-34 -75,-22 -144,-57 -209,-103l111 -194c43,32 93,58 150,79 56,21 106,31 151,31 53,0 99,-11 138,-34 39,-22 59,-58 59,-109 0,-66 -62,-122 -185,-171 -72,-28 -132,-56 -181,-82 -48,-27 -90,-65 -125,-114 -35,-50 -52,-112 -52,-186 0,-109 36,-197 108,-264 71,-67 167,-103 287,-109 94,0 172,11 236,32 63,22 124,52 184,91l-95 191c-110,-61 -206,-91 -288,-91z"/>
  <polygon class="fil0" points="5936,276 5936,603 6119,603 6119,791 5936,791 5936,1360 5695,1360 5695,791 5578,791 5578,603 5695,603 5695,276 "/>
  <path class="fil0" d="M6625 670c36,-32 73,-57 111,-75 38,-17 68,-26 89,-26l-12 241c-7,-1 -16,-2 -29,-2 -48,0 -91,13 -127,38 -37,26 -65,58 -85,98 -19,39 -29,80 -29,121l0 295 -240 0 0 -753 217 0 19 172c21,-40 49,-76 86,-109z"/>
  <g>
   <path class="fil0" d="M7501 1126l107 179c-41,23 -85,41 -131,55 -46,14 -90,21 -131,21 -90,0 -167,-17 -232,-51 -65,-34 -114,-82 -147,-143 -34,-62 -50,-132 -50,-211 0,-74 19,-142 57,-204 39,-62 92,-111 158,-147 67,-36 140,-55 219,-55 108,0 197,32 266,95 70,64 115,154 136,271l-552 176c37,42 87,64 150,64 48,0 98,-17 150,-50l0 0zm-298 -312c-32,36 -48,86 -48,148l0 15 331 -112c-25,-71 -76,-107 -154,-107 -54,0 -97,19 -129,56z"/>
  </g>
  <path class="fil0" d="M8739 607l0 753 -242 0 0 -93c-72,76 -156,114 -251,114 -112,0 -202,-34 -272,-100 -69,-67 -104,-166 -104,-297 0,-83 17,-155 51,-218 34,-62 79,-111 135,-146 56,-34 117,-51 181,-51 67,0 120,10 159,30 39,20 73,48 103,85l16 -77 224 0zm-242 463l0 -184c-13,-37 -37,-66 -71,-88 -34,-22 -74,-33 -120,-33 -53,0 -98,20 -135,59 -38,39 -56,88 -56,148 0,39 9,75 27,108 19,33 43,58 74,77 30,18 63,27 99,27 83,0 144,-38 182,-114z"/>
  <path class="fil0" d="M10156 631c45,41 68,96 70,164l0 565 -239 0 0 -465c-3,-38 -9,-67 -19,-86 -11,-19 -31,-29 -61,-32 -56,0 -100,28 -132,82 -31,55 -47,119 -47,192l0 309 -241 0 0 -465c-3,-38 -9,-67 -21,-86 -11,-19 -33,-29 -64,-32 -54,0 -96,28 -127,82 -31,55 -47,118 -47,189l0 312 -241 0 0 -753 219 0 17 119c61,-105 152,-157 272,-157 61,0 111,12 151,37 40,25 67,61 82,109 32,-45 70,-80 115,-107 44,-26 89,-39 137,-39 73,0 132,20 176,62z"/>
  <g>
   <path class="fil0" d="M10510 253c27,-24 57,-36 92,-36 33,0 63,12 89,36 27,23 40,52 40,87 0,34 -13,63 -40,86 -26,23 -56,34 -89,34 -35,0 -65,-11 -92,-34 -27,-23 -41,-52 -41,-86 0,-35 14,-64 41,-87l0 0zm206 1107l-242 0 0 -753 242 0 0 753z"/>
  </g>
  <path class="fil0" d="M11666 634c48,43 72,97 73,162l0 564 -241 0 0 -474c-3,-74 -40,-110 -110,-110 -55,0 -100,25 -133,77 -33,52 -50,119 -50,200l0 307 -241 0 0 -753 219 0 17 120c28,-49 66,-88 115,-115 48,-28 106,-41 173,-41 71,0 130,21 178,63z"/>
  <path class="fil0" d="M12830 607l0 753c0,71 -20,136 -61,194 -41,58 -96,103 -165,136 -70,33 -145,49 -227,49 -62,0 -116,-7 -163,-22 -46,-15 -84,-32 -112,-50 -28,-19 -62,-44 -101,-76l142 -166c34,33 68,58 102,76 34,19 77,28 129,28 61,0 112,-15 153,-46 41,-30 62,-72 62,-126l0 -107c-23,39 -58,70 -106,94 -48,25 -106,37 -175,37 -68,0 -131,-18 -189,-53 -58,-35 -104,-83 -138,-145 -35,-61 -52,-129 -52,-204 0,-76 18,-145 54,-208 36,-64 84,-113 143,-149 60,-35 122,-53 187,-53 62,0 118,9 166,27 48,17 85,41 110,69l19 -58 222 0 0 0zm-241 463l0 -184c-16,-37 -43,-66 -80,-88 -37,-22 -80,-33 -128,-33 -59,0 -108,20 -149,59 -40,39 -60,88 -60,148 0,60 20,110 60,151 41,41 90,61 149,61 96,0 166,-38 208,-114z"/>
  <path class="fil0" d="M14068 307c-55,0 -98,11 -128,33 -31,21 -46,54 -46,98 0,40 22,75 66,106 44,30 103,59 177,87 60,22 111,47 153,75 43,28 78,67 106,116 29,50 43,112 43,188 0,65 -17,126 -51,182 -34,56 -84,100 -149,133 -66,32 -144,49 -235,49 -76,0 -151,-12 -226,-34 -74,-22 -144,-57 -208,-103l110 -194c44,32 94,58 150,79 56,21 107,31 152,31 53,0 99,-11 138,-34 39,-22 58,-58 58,-109 0,-66 -61,-122 -184,-171 -73,-28 -133,-56 -181,-82 -48,-27 -90,-65 -125,-114 -35,-50 -53,-112 -53,-186 0,-109 36,-197 108,-264 72,-67 168,-103 287,-109 94,0 173,11 236,32 63,22 125,52 185,91l-95 191c-110,-61 -206,-91 -288,-91z"/>
  <path class="fil0" d="M15158 1356c-50,17 -99,25 -147,25 -131,0 -235,-36 -311,-106 -77,-71 -115,-168 -115,-293 0,-80 19,-150 56,-211 37,-60 87,-106 147,-138 61,-31 127,-47 197,-47 125,0 227,33 305,100l-117 155c-50,-39 -105,-59 -166,-59 -50,0 -93,19 -128,57 -35,38 -53,86 -53,143 0,58 19,106 57,144 38,39 88,58 148,58 53,0 97,-14 131,-43l121 152c-33,26 -75,47 -125,63z"/>
  <path class="fil0" d="M16172 634c47,43 72,97 73,162l0 564 -241 0 0 -474c-4,-74 -41,-110 -111,-110 -55,0 -99,25 -132,77 -34,52 -50,119 -50,200l0 307 -242 0 0 -1360 236 0 0 726c28,-49 66,-87 115,-114 49,-28 107,-42 173,-42 71,1 131,22 179,64z"/>
  <g>
   <path class="fil0" d="M16489 767c36,-61 87,-109 153,-144 66,-35 141,-52 225,-52 84,0 158,17 222,52 63,35 112,83 147,144 34,61 52,130 52,207 0,77 -18,146 -52,208 -35,62 -84,111 -147,146 -64,35 -139,53 -225,53 -84,0 -159,-17 -224,-49 -65,-33 -115,-80 -151,-141 -36,-61 -55,-133 -55,-217 0,-77 19,-146 55,-207l0 0zm240 358c35,39 78,59 131,59 55,0 100,-19 134,-58 34,-40 51,-90 51,-150 0,-61 -17,-111 -51,-150 -34,-39 -79,-59 -134,-59 -53,0 -96,20 -131,59 -34,40 -52,90 -52,150 0,59 18,109 52,149z"/>
  </g>
  <g>
   <path class="fil0" d="M17473 767c36,-61 87,-109 153,-144 66,-35 141,-52 225,-52 84,0 158,17 222,52 64,35 113,83 147,144 35,61 52,130 52,207 0,77 -17,146 -52,208 -34,62 -83,111 -147,146 -64,35 -139,53 -225,53 -84,0 -159,-17 -223,-49 -65,-33 -116,-80 -152,-141 -36,-61 -54,-133 -54,-217 0,-77 18,-146 54,-207l0 0zm240 358c35,39 79,59 131,59 56,0 100,-19 134,-58 34,-40 51,-90 51,-150 0,-61 -17,-111 -51,-150 -34,-39 -78,-59 -134,-59 -53,0 -96,20 -131,59 -34,40 -51,90 -51,150 0,59 17,109 51,149z"/>
  </g>
  <rect class="fil0" x="18461" width="241" height="1360"/>
 </g>
</svg>
