<?xml version="1.0" encoding="UTF-8"?>
<!DOCTYPE svg PUBLIC "-//W3C//DTD SVG 1.1//EN" "http://www.w3.org/Graphics/SVG/1.1/DTD/svg11.dtd">
<svg xmlns="http://www.w3.org/2000/svg" xml:space="preserve" width="103.955mm" height="90.3111mm" version="1.1" style="fill: #faf9f9; shape-rendering:geometricPrecision; text-rendering:geometricPrecision; image-rendering:optimizeQuality; fill-rule:evenodd; clip-rule:evenodd"
viewBox="0 0 5147 4472"
 xmlns:xlink="http://www.w3.org/1999/xlink">
 <g id="Warstwa_x0020_1">
  <metadata id="CorelCorpID_0Corel-Layer"/>
  <path class="fil0" d="M3777 3856c428,-407 695,-983 695,-1620 0,-1235 -1001,-2236 -2236,-2236 -1235,0 -2236,1001 -2236,2236 0,1235 1001,2236 2236,2236 26,0 79,0 79,0 460,0 816,-54 1192,-179 889,-295 1448,-9 1471,4l84 -157 85 -156c-25,-13 -545,-288 -1370,-128zm-483 -2899c63,-37 144,-15 180,48l447 774c36,63 15,143 -48,180 -276,159 -631,64 -791,-212 -159,-276 -64,-631 212,-790zm-2117 2558c-63,36 -143,15 -179,-48l-447 -775c-37,-62 -15,-143 48,-179 276,-160 631,-65 790,212 160,276 65,630 -212,790zm212 -1768c-159,276 -514,371 -790,212 -63,-37 -85,-117 -48,-180l447 -774c36,-63 116,-85 179,-48 277,159 372,514 212,790zm1294 2177l-894 0c-73,0 -132,-59 -132,-132 0,-319 260,-579 579,-579 319,0 578,260 578,579 0,73 -58,132 -131,132zm-869 -1688c0,-233 189,-422 422,-422 233,0 421,189 421,422 0,233 -188,421 -421,421 -233,0 -422,-188 -422,-421zm422 -978c-319,0 -579,-259 -579,-579 0,-72 59,-131 132,-131l894 0c73,0 131,59 131,131 0,320 -259,579 -578,579zm1238 2209c-36,63 -117,84 -180,48 -276,-160 -371,-514 -212,-790 160,-277 515,-372 791,-212 63,36 84,117 48,179l-447 775z"/>
 </g>
</svg>
