<?xml version="1.0" encoding="UTF-8"?>
<!DOCTYPE svg PUBLIC "-//W3C//DTD SVG 1.1//EN" "http://www.w3.org/Graphics/SVG/1.1/DTD/svg11.dtd">
<svg xmlns="http://www.w3.org/2000/svg" xml:space="preserve" width="124.178mm" height="64.8684mm" version="1.1" style="fill: #faf9f9; shape-rendering:geometricPrecision; text-rendering:geometricPrecision; image-rendering:optimizeQuality; fill-rule:evenodd; clip-rule:evenodd"
viewBox="0 0 11147 5823"
 xmlns:xlink="http://www.w3.org/1999/xlink">
 <g id="Warstwa_x0020_1">
  <metadata id="CorelCorpID_0Corel-Layer"/>
  <path class="fil0" d="M5014 3207c-213,0 -387,174 -387,387l0 698 -209 0 0 -698c0,-273 185,-509 446,-577l0 -1126c0,-218 -177,-395 -395,-395l-1608 0c-218,0 -395,177 -395,395l0 1126c261,68 446,304 446,577l0 698 -209 0 0 -698c0,-213 -173,-387 -387,-387 -214,0 -388,174 -388,387l0 829c0,214 174,388 388,388l1121 0 0 422 -252 0c-22,0 -43,13 -54,33l-255 466c-10,19 -10,42 1,61 11,19 31,30 53,30l1472 0c33,-1 60,-28 60,-62 0,-12 -3,-24 -10,-34l-2 -3 -251 -459c-11,-19 -31,-32 -54,-32l-251 0 0 -422 1120 0c214,0 388,-174 388,-388l0 -829c0,-213 -174,-387 -388,-387z"/>
  <path class="fil0" d="M8832 3207c-214,0 -388,174 -388,387l0 698 -209 0 0 -698c0,-273 185,-509 446,-577l1 -1126c0,-218 -178,-395 -395,-395l-1609 0c-218,0 -395,177 -395,395l0 1126c261,68 447,304 447,577l0 698 -209 0 0 -698c0,-213 -174,-387 -388,-387 -214,0 -387,174 -387,387l0 829c0,214 173,388 387,388l1121 0 0 422 -251 0c-23,0 -44,13 -55,33l-255 466c-10,19 -10,42 1,61 11,19 32,30 54,30l1471 0c33,-1 61,-28 61,-62 0,-12 -4,-24 -11,-34l-2 -3 -250 -459c-11,-19 -32,-32 -55,-32l-251 0 0 -422 1121 0c213,0 387,-174 387,-388l0 -829c0,-213 -174,-387 -387,-387z"/>
  <path class="fil0" d="M2270 1891c0,-326 265,-591 591,-591l75 0 0 -905c0,-218 -177,-395 -395,-395l-1609 0c-217,0 -394,177 -394,395l0 1126c261,68 446,304 446,577l0 698 -209 0 0 -698c0,-213 -174,-387 -388,-387 -213,0 -387,174 -387,387l0 829c0,214 174,388 387,388l1121 0 0 422 -251 0c-23,0 -44,13 -55,32l-255 467c-10,19 -10,42 2,61 11,19 31,30 53,30l730 0 0 -733c0,-306 238,-558 538,-581l0 -1122z"/>
  <path class="fil0" d="M6087 1891c0,-326 265,-591 591,-591l75 0 0 -905c0,-218 -177,-395 -395,-395l-1608 0c-218,0 -395,177 -395,395l0 905 114 0c326,0 591,265 591,591l0 1121c244,20 446,189 514,416 67,-227 269,-396 513,-415l0 -1122z"/>
  <path class="fil0" d="M10760 1711c-214,0 -387,174 -387,387l0 698 -209 0 0 -698c0,-273 185,-509 446,-577l0 -1126c0,-218 -177,-395 -395,-395l-1608 0c-218,0 -395,177 -395,395l0 905 75 0c325,0 591,265 591,591l0 1121c300,24 537,276 537,582l0 733 732 0c34,0 61,-28 61,-62 0,-12 -4,-23 -10,-34l-2 -3 -251 -459c-11,-19 -32,-32 -54,-32l-252 0 0 -422 1121 0c214,0 387,-174 387,-388l0 -829c0,-213 -173,-387 -387,-387z"/>
 </g>
</svg>
