<?xml version="1.0" encoding="UTF-8"?>
<!DOCTYPE svg PUBLIC "-//W3C//DTD SVG 1.1//EN" "http://www.w3.org/Graphics/SVG/1.1/DTD/svg11.dtd">
<svg xmlns="http://www.w3.org/2000/svg" xml:space="preserve" width="89.964mm" height="55.3132mm" version="1.1" style="fill: #faf9f9; shape-rendering:geometricPrecision; text-rendering:geometricPrecision; image-rendering:optimizeQuality; fill-rule:evenodd; clip-rule:evenodd"
viewBox="0 0 3855 2370"
 xmlns:xlink="http://www.w3.org/1999/xlink">
 <g id="Warstwa_x0020_1">
  <metadata id="CorelCorpID_0Corel-Layer"/>
  <path class="fil0" d="M3855 617l0 -172c-274,-14 -504,-196 -587,-445l-2099 0c-34,103 -94,194 -171,267l1818 0 42 123c61,183 232,312 424,322l173 8 0 920c107,-95 247,-155 400,-163l0 -172c-79,0 -143,-64 -143,-143 0,-79 64,-143 143,-143l0 -116c-79,0 -143,-64 -143,-143 0,-79 64,-143 143,-143z"/>
  <path class="fil0" d="M2686 448l-2099 0c-83,249 -313,432 -587,445l0 172c79,0 143,64 143,143 0,79 -64,143 -143,143l0 116c79,0 143,64 143,143 0,79 -64,143 -143,143l0 172c274,14 504,196 587,445l2099 0c83,-249 313,-431 587,-445l0 -172c-79,0 -143,-64 -143,-143 0,-79 64,-143 143,-143l0 -116c-79,0 -143,-64 -143,-143 0,-79 64,-143 143,-143l0 -172c-274,-13 -504,-196 -587,-445zm-88 1517l-1923 0 0 -1212 1923 0 0 1212z"/>
  <polygon class="fil0" points="860,937 2413,937 2413,1781 860,1781 "/>
 </g>
</svg>
