<?xml version="1.0" encoding="iso-8859-1"?>
<!-- Generator: Adobe Illustrator 18.0.0, SVG Export Plug-In . SVG Version: 6.00 Build 0)  -->
<!DOCTYPE svg PUBLIC "-//W3C//DTD SVG 1.1//EN" "http://www.w3.org/Graphics/SVG/1.1/DTD/svg11.dtd">
<svg version="1.1" id="Capa_1" xmlns="http://www.w3.org/2000/svg" xmlns:xlink="http://www.w3.org/1999/xlink" x="0px" y="0px"
	 viewBox="0 0 396.538 396.538" style="enable-background:new 0 0 396.538 396.538;" xml:space="preserve">
<path id="_x32_8-Movie_award_2" fill="#f34336" d="M299.824,73.783c-1.437-4.423-5.261-7.647-9.864-8.316l-55.786-8.106l-24.95-50.55
	C207.167,2.64,202.92,0,198.269,0s-8.898,2.64-10.956,6.811l-24.949,50.55l-55.786,8.106c-4.602,0.669-8.427,3.893-9.864,8.316
	c-1.437,4.423-0.238,9.279,3.092,12.525l40.368,39.346l-9.525,55.557c-0.786,4.584,1.098,9.216,4.861,11.95
	c3.763,2.733,8.749,3.094,12.867,0.93l25.81-13.569l-4.312,105.074c-6.522,0.673-12.201,4.225-15.749,9.357h-7.958
	c-12.065,0-21.881,9.817-21.881,21.884v57.814c0,1.453,0.146,2.873,0.417,4.248h-12.235c-4.871,0-8.819,3.948-8.819,8.819
	s3.949,8.819,8.819,8.819h33.699h104.204h33.699c4.871,0,8.819-3.948,8.819-8.819s-3.949-8.819-8.819-8.819h-12.235
	c0.272-1.375,0.417-2.795,0.417-4.248v-57.814c0-12.066-9.816-21.884-21.881-21.884h-7.958c-3.547-5.132-9.227-8.684-15.749-9.357
	l-4.311-105.074l25.81,13.569c1.788,0.94,3.739,1.403,5.684,1.403c0.016,0,0.032,0,0.048,0c6.736-0.014,12.192-5.479,12.192-12.218
	c0-0.96-0.111-1.895-0.32-2.791l-9.401-54.831l40.368-39.346C300.063,83.062,301.262,78.206,299.824,73.783z M244.155,329.401
	v33.057h-91.772v-33.057H244.155z M234.707,112.637c-2.88,2.807-4.194,6.851-3.514,10.815l6.428,37.489l-33.667-17.699
	c-1.78-0.936-3.732-1.403-5.686-1.403s-3.906,0.468-5.686,1.403l-33.667,17.699l6.428-37.489c0.68-3.964-0.634-8.008-3.514-10.815
	l-27.238-26.548l37.641-5.469c3.98-0.578,7.42-3.078,9.2-6.684l16.835-34.111l16.835,34.111c1.78,3.606,5.22,6.105,9.2,6.684
	l37.641,5.469L234.707,112.637z"/>
</svg>
