<?xml version="1.0" encoding="UTF-8"?>
<!DOCTYPE svg PUBLIC "-//W3C//DTD SVG 1.1//EN" "http://www.w3.org/Graphics/SVG/1.1/DTD/svg11.dtd">
<!-- Creator: CorelDRAW Home & Student X7 -->
<?xml-stylesheet href="music.css" type="text/css"?>
<svg xmlns="http://www.w3.org/2000/svg" xml:space="preserve" width="3.3867mm" height="2.2611mm" version="1.1" style="shape-rendering:geometricPrecision; text-rendering:geometricPrecision; image-rendering:optimizeQuality; fill-rule:evenodd; clip-rule:evenodd"
viewBox="0 0 39 26"
 xmlns:xlink="http://www.w3.org/1999/xlink">
 <g id="Warstwa_x0020_1">
  <metadata id="CorelCorpID_0Corel-Layer"/>
  <path class="fil0" d="M39 12l-5 0c0,0 -1,1 -1,1l-1 2 -4 -5c0,0 -1,0 -1,0 -1,0 -1,0 -1,0l-5 11 -5 -20c0,-1 0,-1 -1,-1 -1,0 -1,0 -1,1l-5 13 -2 -4c0,0 -1,-1 -2,0 0,0 0,0 0,0l-4 2 -1 0 0 2 1 0c0,0 1,0 1,0l3 -2 3 5c0,1 1,1 2,1 0,0 0,-1 0,-1l4 -11 5 19c0,0 0,1 1,1 0,0 0,0 0,0 1,0 1,0 1,-1l6 -12 4 4c0,0 0,1 1,1 0,0 1,-1 1,-1l2 -3 4 0 0 -2z"/>
 </g>
</svg>
