<?xml version="1.0" standalone="no"?>
<!DOCTYPE svg PUBLIC "-//W3C//DTD SVG 20010904//EN"
 "http://www.w3.org/TR/2001/REC-SVG-20010904/DTD/svg10.dtd">
<svg version="1.0" xmlns="http://www.w3.org/2000/svg"
 width="280.000000pt" height="280.000000pt" viewBox="0 0 280.000000 280.000000"
 preserveAspectRatio="xMidYMid meet">
<metadata>
Created by potrace 1.11, written by Peter Selinger 2001-2013
</metadata>
<g transform="translate(0.000000,280.000000) scale(0.100000,-0.100000)"
fill="#000000" stroke="none">
<path d="M705 2245 c-558 -106 -864 -703 -619 -1205 100 -205 289 -366 514
-438 83 -27 113 -32 230 -37 247 -13 460 72 661 263 143 136 177 168 369 352
102 98 205 197 230 220 25 23 124 118 220 210 298 286 344 329 350 325 4 -2 5
-1116 1 -1162 -1 -12 -180 -17 -182 -5 -1 4 -2 142 -4 307 -1 165 -3 308 -4
318 -1 20 -55 47 -81 40 -9 -2 -43 -30 -76 -60 -32 -31 -100 -95 -150 -142
-50 -47 -157 -149 -239 -226 -300 -283 -295 -278 -295 -311 0 -48 53 -84 92
-63 12 6 33 23 48 38 24 24 268 255 365 346 22 20 76 71 120 113 l80 76 5
-272 c4 -241 7 -273 23 -289 15 -15 39 -17 208 -18 188 0 191 0 210 24 18 22
19 50 19 756 0 685 -1 733 -17 747 -26 21 -50 28 -72 20 -11 -4 -94 -79 -186
-167 -92 -88 -190 -182 -218 -209 -29 -27 -133 -126 -231 -220 -98 -94 -196
-187 -216 -206 -20 -19 -118 -113 -218 -209 -279 -267 -284 -271 -337 -313
-141 -113 -376 -173 -559 -143 -263 44 -498 245 -575 492 -86 273 3 574 226
757 99 83 242 146 359 161 l41 5 -1 -74 c-1 -41 -3 -77 -6 -80 -3 -3 -19 -7
-35 -10 -52 -10 -89 -23 -147 -51 -266 -130 -383 -457 -258 -723 143 -305 516
-416 807 -240 31 19 182 159 365 339 281 277 311 310 311 339 0 29 -25 58
-249 279 -137 136 -261 255 -275 265 -30 19 -70 14 -91 -11 -10 -12 -13 -123
-13 -504 l0 -488 -30 -31 c-162 -169 -430 -181 -601 -27 -87 78 -144 218 -137
331 12 199 181 374 378 392 117 11 117 12 117 198 0 196 0 194 -22 216 -17 17
-32 20 -83 18 -34 -1 -89 -7 -122 -13z m841 -501 l124 -121 -59 -59 c-32 -33
-106 -106 -164 -163 l-105 -104 0 323 0 322 40 -38 c22 -22 95 -94 164 -160z"/>
</g>
</svg>
