<svg id="Layer_1" data-name="Layer 1" xmlns="http://www.w3.org/2000/svg" viewBox="0 0 803.72 489.1"><defs><style>.cls-1{fill:#fff;}</style></defs><title>CourseMakers_sygnet_WHITE_RGB</title><path class="cls-1" d="M790,784.55a253.66,253.66,0,0,1-27.6-1.5C636.81,769.12,542.14,664.64,542.14,540c0-134.86,111.34-244.58,248.19-244.58A19.51,19.51,0,0,1,809.84,315v84.48A19.5,19.5,0,0,1,790.33,419C722.3,419,667,473.25,667,540a119.44,119.44,0,0,0,32.41,81.7l1,1.12c45.75,48.19,123.33,50.38,172.51,4.44l20.69-20.55a19.51,19.51,0,1,1,27.5,27.69l-21.12,21c-65.23,60.94-167.45,58-228.29-6.12l-1.07-1.19A158,158,0,0,1,627.93,540c0-81.76,62.5-149.4,142.89-158.93V335.36C664.6,345.07,581.17,433.15,581.17,540c0,104.68,79.74,192.49,185.48,204.25,61,6.56,121.07-13,164.81-53.73l381.38-365.5a19.52,19.52,0,0,1,33,14.1V746.47A19.52,19.52,0,0,1,1326.34,766h-93.07a19.52,19.52,0,0,1-19.51-19.51V597.94L1042.19,760.63a19.51,19.51,0,0,1-26.85-28.32l204.51-193.92a19.51,19.51,0,0,1,32.94,14.16V727h54V384.87l-348.56,334C912.69,761.39,852.59,784.55,790,784.55Z" transform="translate(-542.14 -295.45)"/><path class="cls-1" d="M907.32,640.07a19.52,19.52,0,0,1-19.12-23.41V338.75a19.52,19.52,0,0,1,33.25-13.86l141.79,140.63a19.52,19.52,0,0,1,0,27.7L921.07,634.41A19.43,19.43,0,0,1,907.32,640.07Zm19.91-254.48v187.7l94.56-93.91Z" transform="translate(-542.14 -295.45)"/></svg>