<?xml version="1.0" encoding="UTF-8"?>
<!DOCTYPE svg PUBLIC "-//W3C//DTD SVG 1.1//EN" "http://www.w3.org/Graphics/SVG/1.1/DTD/svg11.dtd">
<!-- Creator: CorelDRAW Home & Student X7 -->
<svg xmlns="http://www.w3.org/2000/svg" xml:space="preserve" width="56.3328mm" height="18.8448mm" version="1.1" style="shape-rendering:geometricPrecision; text-rendering:geometricPrecision; image-rendering:optimizeQuality; fill-rule:evenodd; clip-rule:evenodd"
viewBox="0 0 1287 430"
 xmlns:xlink="http://www.w3.org/1999/xlink">
 <defs>
  <style type="text/css">
   <![CDATA[
    .fil0 {fill:#FEFEFE;fill-rule:nonzero}
   ]]>
  </style>
 </defs>
 <g id="Warstwa_x0020_1">
  <metadata id="CorelCorpID_0Corel-Layer"/>
  <g id="_338874120">
   <path class="fil0" d="M667 131l0 0 -36 206 43 0 15 -80 53 0 32 80 48 0 -34 -87c0,0 55,-12 55,-74 0,-53 -82,-48 -93,-48l-83 3zm38 36l61 0c19,0 30,2 29,21 -1,19 -12,30 -39,32l-59 -1 8 -52z"/>
   <polygon class="fil0" points="454,132 454,132 447,166 516,166 486,333 532,333 563,165 632,165 639,131 "/>
   <path class="fil0" d="M312 249l0 0 62 0 -17 -78 -45 78zm-96 86l126 -204 48 0 53 207 -50 0 -10 -48 -93 0 -26 47 -48 -2z"/>
   <path class="fil0" d="M928 251l0 0 62 0 -18 -78 -44 78zm-97 86l126 -205 49 0 53 208 -50 0 -10 -49 -94 0 -26 47 -48 -1z"/>
   <polygon class="fil0" points="1095,131 1149,234 1059,337 1109,337 1169,266 1201,337 1253,337 1201,231 1287,131 1234,129 1180,195 1148,129 "/>
   <path class="fil0" d="M172 148c0,0 -91,-45 -96,109 -4,112 54,129 70,129 16,0 30,-11 30,-11l11 4c0,0 -9,28 -50,28 -42,0 -74,-77 -74,-152 0,-75 42,-136 74,-136 31,0 51,30 51,30l-16 -1z"/>
   <path class="fil0" d="M151 53c14,26 19,59 19,59l-19 -1c0,0 2,-14 -10,-47 -13,-33 -37,-64 -37,-64 0,0 33,27 47,53z"/>
   <path class="fil0" d="M152 260c11,-58 6,-95 6,-95l23 0c0,0 9,53 -2,106 -10,53 -29,93 -29,93l-29 -16c0,0 20,-30 31,-88z"/>
   <path class="fil0" d="M45 408c22,-1 46,-21 46,-21l22 24c0,0 -25,19 -50,19 -26,0 -63,-33 -63,-33 0,0 22,12 45,11z"/>
   <path class="fil0" d="M91 200c2,-17 21,-26 21,-26 0,0 -5,26 11,42 15,16 28,-1 28,-1 0,0 3,35 -29,28 -17,-4 -33,-27 -31,-43z"/>
  </g>
 </g>
</svg>
